<?xml version="1.0" encoding="UTF-8"?>
<svg id="Layer_2" xmlns="http://www.w3.org/2000/svg" version="1.1" viewBox="0 0 2973.2 1995.8">
  <!-- Generator: Adobe Illustrator 30.0.0, SVG Export Plug-In . SVG Version: 2.1.1 Build 123)  -->
  <defs>
    <style>
      .st0 {
        fill: none;
        stroke: #da173d;
        stroke-miterlimit: 10;
        stroke-width: 3px;
      }
    </style>
  </defs>
  <g id="Layer_2-2">
    <ellipse class="st0" cx="1486.1" cy="649.3" rx="1481.5" ry="644.5"/>
    <line class="st0" x1="5.6" y1="685.3" x2="24.6" y2="855.8"/>
    <path class="st0" d="M24.6,854.3c296,624.6,2422.1,749.2,2921,.5"/>
    <line class="st0" x1="149.6" y1="1013.8" x2="183.6" y2="1590.8"/>
    <line class="st0" x1="246.6" y1="1086.8" x2="249.6" y2="1628.3"/>
    <line class="st0" x1="283.6" y1="1110.3" x2="277.6" y2="1587.3"/>
    <line class="st0" x1="183.6" y1="1590.8" x2="249.6" y2="1628.3"/>
    <line class="st0" x1="277.6" y1="1587.3" x2="249.6" y2="1628.3"/>
    <line class="st0" x1="2966.3" y1="682" x2="2944.6" y2="856.8"/>
    <line class="st0" x1="1886.6" y1="1347.8" x2="1906.1" y2="1959.8"/>
    <line class="st0" x1="1966.6" y1="1335.8" x2="1969.6" y2="1992.8"/>
    <line class="st0" x1="2037.7" y1="1325.8" x2="2014.1" y2="1941.8"/>
    <line class="st0" x1="1906.1" y1="1959.8" x2="1969.6" y2="1992.8"/>
    <line class="st0" x1="2014.6" y1="1940.8" x2="1970.1" y2="1995.8"/>
    <line class="st0" x1="2848" y1="975.8" x2="2819.6" y2="1525.8"/>
    <line class="st0" x1="2770.6" y1="1037.8" x2="2761" y2="1572.3"/>
    <line class="st0" x1="2722" y1="1074.3" x2="2721" y2="1531.3"/>
    <line class="st0" x1="2819.6" y1="1525.8" x2="2761" y2="1572.3"/>
    <line class="st0" x1="2721" y1="1531.3" x2="2761.6" y2="1572.8"/>
  </g>
</svg>