<?xml version="1.0" encoding="UTF-8"?>
<svg id="Layer_2" xmlns="http://www.w3.org/2000/svg" version="1.1" viewBox="0 0 2968 1995.1">
  <!-- Generator: Adobe Illustrator 30.0.0, SVG Export Plug-In . SVG Version: 2.1.1 Build 123)  -->
  <defs>
    <style>
      .st0 {
        fill: none;
        stroke: #da173d;
        stroke-miterlimit: 10;
        stroke-width: 3px;
      }
    </style>
  </defs>
  <g id="Layer_2-2">
    <ellipse class="st0" cx="1484" cy="647" rx="1481.5" ry="644.5"/>
    <line class="st0" x1="3.5" y1="683" x2="22.5" y2="853.5"/>
    <path class="st0" d="M22.5,852c296,624.6,2422.1,749.2,2921,.5"/>
    <line class="st0" x1="147.5" y1="1011.5" x2="181.5" y2="1588.5"/>
    <line class="st0" x1="244.5" y1="1084.5" x2="247.5" y2="1626"/>
    <line class="st0" x1="281.5" y1="1108" x2="275.5" y2="1585"/>
    <line class="st0" x1="181.5" y1="1588.5" x2="247.5" y2="1626"/>
    <line class="st0" x1="275.5" y1="1585" x2="247.5" y2="1626"/>
    <line class="st0" x1="2964.2" y1="679.7" x2="2942.5" y2="854.5"/>
    <line class="st0" x1="1884.5" y1="1345.5" x2="1904" y2="1957.5"/>
    <line class="st0" x1="1964.5" y1="1333.5" x2="1967.5" y2="1990.5"/>
    <line class="st0" x1="2035.6" y1="1323.5" x2="2012" y2="1939.5"/>
    <line class="st0" x1="1904" y1="1957.5" x2="1967.5" y2="1990.5"/>
    <line class="st0" x1="2012.5" y1="1938.5" x2="1968" y2="1993.5"/>
    <line class="st0" x1="2845.9" y1="973.5" x2="2817.5" y2="1523.5"/>
    <line class="st0" x1="2768.5" y1="1035.5" x2="2758.9" y2="1570"/>
    <line class="st0" x1="2719.9" y1="1072" x2="2718.9" y2="1529"/>
    <line class="st0" x1="2817.5" y1="1523.5" x2="2758.9" y2="1570"/>
    <line class="st0" x1="2718.9" y1="1529" x2="2759.5" y2="1570.5"/>
  </g>
</svg>